# xmcd
#
# Track frame offsets:
#	150
#	15233
#	26561
#	49176
#	64589
#	73383
#	82772
#	96597
#	106115
#	122506
#	133206
#	150758
#	160357
#	169800
#	183386
#	198207
#	210332
#	225226
#	238817
#	250937
#
# Disc length: 3500 seconds
#
# Revision: 0
# Processed by: cddbd v1.5.1PL0 Copyright (c) Steve Scherf et al.
# Submitted via: audiograbber 1.83.01
#
DISCID=fc0daa14
DTITLE=The Platters - Real Gold-cd2
DYEAR=1900
DGENRE=Cult
TTITLE0=The Great Pretender
TTITLE1=Smoke Gets in Your Eyes
TTITLE2=Unchained Melody
TTITLE3=My Prayer
TTITLE4=Sweet Sweet Lovin`
TTITLE5=Baby Baby
TTITLE6=Harbour Lights
TTITLE7=Sunday Morning
TTITLE8=I Love You Because
TTITLE9=Red Sails In The Sunset
TTITLE10=If I Had a Love
TTITLE11=Love must go on
TTITLE12=Doesn`t it Ring a Bell ?
TTITLE13=Alone in The Night
TTITLE14=Loving You
TTITLE15=With This Ring
TTITLE16=God saw The Blood
TTITLE17=Headin` Home
TTITLE18=Why in The name of God
TTITLE19=Magnificent Sanctuary Band
EXTD=
EXTT0=
EXTT1=
EXTT2=
EXTT3=
EXTT4=
EXTT5=
EXTT6=
EXTT7=
EXTT8=
EXTT9=
EXTT10=
EXTT11=
EXTT12=
EXTT13=
EXTT14=
EXTT15=
EXTT16=
EXTT17=
EXTT18=
EXTT19=
PLAYORDER=
